<?xml version="1.0" standalone="no"?>
<!DOCTYPE svg PUBLIC "-//W3C//DTD SVG 20010904//EN"
 "http://www.w3.org/TR/2001/REC-SVG-20010904/DTD/svg10.dtd">
<svg version="1.0" xmlns="http://www.w3.org/2000/svg"
 width="500.000000pt" height="500.000000pt" viewBox="0 0 500.000000 500.000000"
 preserveAspectRatio="xMidYMid meet">

<g transform="translate(0.000000,500.000000) scale(0.100000,-0.100000)"
fill="#000000" stroke="none">
<path d="M2260 4980 c-460 -32 -942 -228 -1329 -540 -125 -101 -327 -309 -419
-432 -274 -366 -442 -786 -492 -1233 -13 -118 -13 -391 1 -535 28 -297 134
-645 281 -920 188 -352 488 -681 824 -902 307 -203 648 -334 999 -384 176 -25
599 -25 755 -1 215 34 384 82 578 163 775 325 1333 1011 1492 1835 42 215 53
551 26 769 -55 438 -219 847 -481 1195 -387 517 -987 878 -1607 970 -120 17
-474 26 -628 15z m1254 -1594 c114 -32 186 -74 266 -155 110 -112 175 -251
211 -451 18 -100 18 -410 0 -520 -51 -316 -194 -510 -440 -596 -57 -20 -66
-27 -63 -46 4 -36 31 -69 67 -84 46 -19 191 -18 295 2 45 8 83 14 84 12 9 -12
76 -271 72 -276 -34 -33 -397 -53 -515 -28 -161 34 -282 121 -345 247 -19 37
-37 85 -41 106 -6 38 -7 40 -63 51 -31 7 -86 26 -122 43 -262 124 -390 394
-390 824 0 227 32 392 105 542 92 186 233 297 435 339 91 19 365 13 444 -10z
m-1564 -35 c269 -80 374 -239 373 -561 -2 -328 -123 -509 -384 -576 -46 -11
-129 -17 -291 -21 l-228 -5 0 -264 0 -264 -175 0 -175 0 0 861 0 861 403 -5
c380 -4 406 -5 477 -26z"/>
<path d="M3145 3086 c-127 -40 -193 -125 -232 -298 -23 -102 -23 -433 0 -536
36 -161 109 -260 217 -295 66 -21 208 -22 277 -2 70 21 143 88 176 162 99 222
80 705 -33 861 -36 50 -91 88 -156 108 -58 17 -194 17 -249 0z"/>
<path d="M1420 2785 l0 -287 183 4 c114 3 195 10 217 18 101 37 132 92 138
238 7 169 -27 241 -136 283 -49 20 -80 23 -229 27 l-173 4 0 -287z"/>
</g>
</svg>